<svg width="163" height="44" viewBox="0 0 163 44" fill="none" xmlns="http://www.w3.org/2000/svg">
<path d="M108.319 0H101.464V38.3408C107.694 38.5552 113.898 38.8695 120.077 39.2815V32.5265C116.168 32.2659 112.249 32.0449 108.319 31.8619V0ZM162.801 0.00387853H155.27L150.306 11.5095L145.846 0.00387853H138.429L146.4 20.5629L137.698 40.732C140.106 40.9668 142.506 41.2174 144.904 41.4821L149.965 29.7551L154.977 42.6824C157.587 43.018 160.191 43.3682 162.789 43.7391L162.801 43.7347L153.87 20.7018L162.801 0.00387853ZM77.9309 38.0057L84.7866 38.0043V22.4083H94.0801V15.6534H84.7866V6.81993H97.0691V0.00422147H77.9309V38.0057ZM52.3301 6.81948H59.5053V38.4074C61.7866 38.3212 64.0725 38.2502 66.3609 38.1903V6.81948H73.5357V0.00387853H52.3301V6.81948ZM28.8923 40.3706C35.211 39.7964 41.5587 39.3232 47.9353 38.956V32.2003C43.8612 32.4357 39.7986 32.7146 35.7479 33.0331V22.8063C38.4057 22.7799 41.9055 22.6987 45.006 22.7373V15.9818C42.529 15.9758 38.5479 16.0164 35.7479 16.0522V6.81993H47.9353V0.00422147H28.8923V40.3706ZM15.4444 24.7542L6.51544 0.00387853H0V43.74C2.2808 43.4154 4.56594 43.1045 6.85553 42.8062V19.0227L14.7949 41.8297C17.292 41.5401 19.7935 41.2659 22.3 41.008V0.00387853H15.4444V24.7542ZM125.729 39.6882C128.017 39.8633 130.302 40.0512 132.585 40.2543V0.00387853H125.729V39.6882Z" fill="#ED1C24"/>
</svg>
